<svg xmlns="http://www.w3.org/2000/svg" viewBox="0 0 146.15 81.68"><defs><style>.cls-1{fill:#fff;}</style></defs><g id="Layer_2" data-name="Layer 2"><g id="Layer_1-2" data-name="Layer 1"><path class="cls-1" d="M73.07,0,50.34,39.37H95.81ZM93.33,37.94H78.49l6.29-14.82ZM83.71,21.29h0L77.43,36.63,74.11,28.8l3-7.39H75.5L73,27.56,70.6,21.41H69l3,7.39-3.29,7.83L62.43,21.3,73.07,2.86ZM76.42,37.94H69.69l3.37-7.89ZM61.37,23.13l6.26,14.81H52.82ZM10.75,62.05A3.27,3.27,0,0,1,10.2,64a3.75,3.75,0,0,1-1.49,1.26,4.71,4.71,0,0,1-2.06.45H0v-14H7a2.82,2.82,0,0,1,1.71.52,3.41,3.41,0,0,1,1.1,1.34,4,4,0,0,1,.39,1.71,3.84,3.84,0,0,1-.52,1.92,3.21,3.21,0,0,1-1.49,1.33,3.59,3.59,0,0,1,1.9,1.31A3.7,3.7,0,0,1,10.75,62.05Zm-9-8.85v4.67H6.23a1.94,1.94,0,0,0,1.12-.32,2.31,2.31,0,0,0,.77-.84,2.46,2.46,0,0,0,.28-1.17,2.7,2.7,0,0,0-.26-1.19,2.21,2.21,0,0,0-.73-.84,1.83,1.83,0,0,0-1.06-.31ZM9,61.74a2.6,2.6,0,0,0-.29-1.21,2.43,2.43,0,0,0-.77-.88,1.85,1.85,0,0,0-1.11-.34h-5v4.81H6.65a2.15,2.15,0,0,0,1.17-.33,2.42,2.42,0,0,0,.83-.88A2.38,2.38,0,0,0,9,61.74Zm10.19,3.92v-14h1.78v14Zm16.67.1a5.62,5.62,0,0,1-2.57-.6,6.69,6.69,0,0,1-2.08-1.62,7.34,7.34,0,0,1-1.38-2.29,7.15,7.15,0,0,1-.5-2.63,7.34,7.34,0,0,1,.5-2.69,7.13,7.13,0,0,1,1.37-2.26,6.33,6.33,0,0,1,2.07-1.55,6.7,6.7,0,0,1,6,.29,5.43,5.43,0,0,1,2,2.21l-1.36.94a4.11,4.11,0,0,0-1.68-1.81,4.69,4.69,0,0,0-2.35-.59,4.13,4.13,0,0,0-1.93.45,4.53,4.53,0,0,0-1.49,1.23,5.8,5.8,0,0,0-.95,1.77,6.71,6.71,0,0,0-.32,2,6.17,6.17,0,0,0,.36,2.12,5.65,5.65,0,0,0,1,1.76,5.14,5.14,0,0,0,1.56,1.19,4.28,4.28,0,0,0,1.91.43,4.57,4.57,0,0,0,2.29-.61,7,7,0,0,0,2-1.87v1.83A5.7,5.7,0,0,1,35.82,65.76ZM40.08,60h-3V58.68h4.52v7h-1.5Zm25.47-8.28h1.68l1.85,4.87L71,51.74h1.68L70.2,57.83l2.41,5.78,4.74-12h1.93l-5.86,14H71.88L69.1,59.05l-2.8,6.61H64.76l-5.84-14h1.91l4.76,12L68,57.83Zm32.74-.08v14H96.52V59.29H88.81v6.37H87v-14h1.78v6.05h7.71V51.66Zm9.28,14v-14h1.77v14Zm21.14-12.42h-4.83V65.66H122.1V53.24h-4.83V51.66h11.44Zm17.44,10.84v1.58h-9.51v-14H146v1.58h-7.55v4.53H145v1.48h-6.57v4.83ZM39.37,76.28a2,2,0,0,0-.3-.26,4.32,4.32,0,0,0-.43-.22,2.89,2.89,0,0,0-1.11-.22,1.85,1.85,0,0,0-1.16.29,1,1,0,0,0-.37.81.85.85,0,0,0,.19.57,1.44,1.44,0,0,0,.59.34c.26.09.6.18,1,.28a6.55,6.55,0,0,1,1.22.37,1.94,1.94,0,0,1,.79.58,1.63,1.63,0,0,1,.28,1,1.86,1.86,0,0,1-.19.84,1.56,1.56,0,0,1-.52.59,2.13,2.13,0,0,1-.78.34,3.82,3.82,0,0,1-1,.11,4.2,4.2,0,0,1-1-.11,4.09,4.09,0,0,1-.93-.32,3.67,3.67,0,0,1-.82-.52l.41-.73a1.85,1.85,0,0,0,.39.32,3,3,0,0,0,.56.29,4,4,0,0,0,.67.22,3.65,3.65,0,0,0,.74.08,2.1,2.1,0,0,0,1.13-.26.86.86,0,0,0,.4-.77.81.81,0,0,0-.22-.6,1.69,1.69,0,0,0-.67-.39c-.29-.1-.65-.2-1.07-.3a6.73,6.73,0,0,1-1.15-.38,1.55,1.55,0,0,1-.7-.53,1.44,1.44,0,0,1-.23-.87,1.84,1.84,0,0,1,.31-1.09A1.92,1.92,0,0,1,36.3,75a3.57,3.57,0,0,1,2.1-.13,3.4,3.4,0,0,1,.74.26,3.46,3.46,0,0,1,.63.42Zm7.44,5.4a2.87,2.87,0,0,1-1.29-.28,3.08,3.08,0,0,1-1-.78,3.64,3.64,0,0,1-.65-1.11,3.43,3.43,0,0,1-.23-1.26,3.54,3.54,0,0,1,.92-2.39,3.43,3.43,0,0,1,1-.77,3,3,0,0,1,1.27-.28,2.8,2.8,0,0,1,1.3.3,3.21,3.21,0,0,1,1,.79A3.64,3.64,0,0,1,49.78,77a3.58,3.58,0,0,1-.68,3.64,3.32,3.32,0,0,1-1,.76A3,3,0,0,1,46.81,81.68Zm-2.32-3.43a3.14,3.14,0,0,0,.17,1,2.81,2.81,0,0,0,.47.85,2.36,2.36,0,0,0,.74.59,2,2,0,0,0,1,.22,2.08,2.08,0,0,0,1-.23,2.25,2.25,0,0,0,.73-.61,2.62,2.62,0,0,0,.45-.86,2.93,2.93,0,0,0,.16-1,2.71,2.71,0,0,0-.17-1,2.87,2.87,0,0,0-.47-.86,2.22,2.22,0,0,0-.74-.59,2.14,2.14,0,0,0-1.91,0,2.24,2.24,0,0,0-.73.6,3,3,0,0,0-.46.86A2.91,2.91,0,0,0,44.49,78.25Zm9.58,3.39V74.86h.85v6H58.7v.77Zm11,0a3,3,0,0,1-1.37-.28,2.41,2.41,0,0,1-.88-.76,3.17,3.17,0,0,1-.49-1.09,5.3,5.3,0,0,1-.15-1.26V74.86H63v3.43a4.34,4.34,0,0,0,.1,1,2.36,2.36,0,0,0,.33.85,1.67,1.67,0,0,0,.62.59,1.91,1.91,0,0,0,1,.22,2,2,0,0,0,1-.22,1.65,1.65,0,0,0,.62-.61,2.59,2.59,0,0,0,.33-.84,4.32,4.32,0,0,0,.1-.95V74.86h.86v3.43a5,5,0,0,1-.16,1.3,3,3,0,0,1-.5,1.08,2.39,2.39,0,0,1-.89.74A3,3,0,0,1,65.06,81.68Zm12.16-6.06H74.88v6H74v-6H71.68v-.76h5.54Zm3.83,6V74.86h.86v6.78Zm8.09,0a2.87,2.87,0,0,1-1.29-.28,3.08,3.08,0,0,1-1-.78,3.64,3.64,0,0,1-.65-1.11A3.43,3.43,0,0,1,86,78.25a3.54,3.54,0,0,1,.92-2.39,3.43,3.43,0,0,1,1-.77,3,3,0,0,1,1.27-.28,2.8,2.8,0,0,1,1.3.3,3.21,3.21,0,0,1,1,.79A3.64,3.64,0,0,1,92.11,77a3.58,3.58,0,0,1-.68,3.64,3.32,3.32,0,0,1-1,.76A3,3,0,0,1,89.14,81.68Zm-2.32-3.43a3.14,3.14,0,0,0,.17,1,2.81,2.81,0,0,0,.47.85,2.36,2.36,0,0,0,.74.59,2,2,0,0,0,1,.22,2.08,2.08,0,0,0,1-.23,2.25,2.25,0,0,0,.73-.61,2.62,2.62,0,0,0,.45-.86,3.05,3.05,0,0,0,0-1.95,3.13,3.13,0,0,0-.48-.86,2.22,2.22,0,0,0-.74-.59,2.14,2.14,0,0,0-1.91,0,2.24,2.24,0,0,0-.73.6,3,3,0,0,0-.46.86A2.91,2.91,0,0,0,86.82,78.25Zm10.43-1.81v5.2H96.4V74.86h.72l4.14,5.3V74.87h.86v6.77h-.78Zm13.34-.16a1.7,1.7,0,0,0-.31-.26,3.45,3.45,0,0,0-.43-.22,2.64,2.64,0,0,0-.52-.16,2.81,2.81,0,0,0-.59-.06,1.82,1.82,0,0,0-1.15.29,1,1,0,0,0-.37.81.8.8,0,0,0,.19.57,1.37,1.37,0,0,0,.59.34c.26.09.59.18,1,.28a6.32,6.32,0,0,1,1.22.37,2,2,0,0,1,.8.58,1.63,1.63,0,0,1,.27,1,1.86,1.86,0,0,1-.18.84,1.65,1.65,0,0,1-.52.59,2.25,2.25,0,0,1-.79.34,3.74,3.74,0,0,1-1,.11,4.28,4.28,0,0,1-1-.11,4.45,4.45,0,0,1-.93-.32,4.19,4.19,0,0,1-.82-.52l.41-.73a1.93,1.93,0,0,0,.4.32,2.86,2.86,0,0,0,.55.29,4.38,4.38,0,0,0,.67.22,3.74,3.74,0,0,0,.75.08,2.06,2.06,0,0,0,1.12-.26.87.87,0,0,0,.41-.77.81.81,0,0,0-.23-.6,1.72,1.72,0,0,0-.66-.39c-.29-.1-.65-.2-1.07-.3a6.86,6.86,0,0,1-1.16-.38,1.61,1.61,0,0,1-.7-.53,1.52,1.52,0,0,1-.23-.87,1.84,1.84,0,0,1,.31-1.09,1.92,1.92,0,0,1,.87-.68,3.31,3.31,0,0,1,1.25-.23,3.38,3.38,0,0,1,.86.1,3.6,3.6,0,0,1,.74.26,3.46,3.46,0,0,1,.63.42Z"/></g></g></svg>